<!DOCTYPE svg PUBLIC "-//W3C//DTD SVG 1.1//EN" "http://www.w3.org/Graphics/SVG/1.1/DTD/svg11.dtd">
<!-- Uploaded to: SVG Find, www.svgrepo.com, Transformed by: SVG Find Mixer Tools -->
<svg width="64px" height="64px" version="1.1" viewBox="144 144 512 512" xmlns="http://www.w3.org/2000/svg" fill="#e84748">
<g id="SVGRepo_bgCarrier" stroke-width="0"/>
<g id="SVGRepo_tracerCarrier" stroke-linecap="round" stroke-linejoin="round" stroke="#CCCCCC" stroke-width="10.24"/>
<g id="SVGRepo_iconCarrier"> <defs> <clipPath id="b"> <path d="m148.09 153h381.91v382h-381.91z"/> </clipPath> <clipPath id="a"> <path d="m472 466h179.9v181h-179.9z"/> </clipPath> </defs> <path d="m321.93 250.74h21.188v31.781h-21.188z"/> <path d="m321.93 388.45h21.188v31.781h-21.188z"/> <path d="m337.82 346.08h-10.594c-13.246 0-25.484-7.0664-32.109-18.535-6.6211-11.473-6.6211-25.605 0-37.078 6.625-11.469 18.863-18.539 32.109-18.539h10.594c9.832 0 19.266 3.9062 26.219 10.859s10.859 16.387 10.859 26.219h-21.188c-0.027343-4.207-1.7109-8.2305-4.6836-11.207-2.9766-2.9727-7-4.6562-11.207-4.6836h-10.594c-5.6758 0-10.922 3.0273-13.762 7.9453-2.8359 4.918-2.8359 10.973 0 15.891 2.8398 4.9141 8.0859 7.9453 13.762 7.9453h10.594z"/> <path d="m337.82 399.05h-10.594c-9.832 0-19.262-3.9062-26.215-10.859-6.9531-6.9531-10.859-16.387-10.859-26.219h21.188-0.003907c0 4.2148 1.6758 8.2578 4.6562 11.234 2.9805 2.9805 7.0195 4.6562 11.234 4.6562h10.594c5.6758 0 10.922-3.0273 13.762-7.9453 2.8398-4.918 2.8398-10.973 0-15.891-2.8398-4.9141-8.0859-7.9453-13.762-7.9453h-10.594v-21.188h10.594v0.003906c13.246 0 25.484 7.0664 32.109 18.535 6.6211 11.473 6.6211 25.605 0 37.078-6.625 11.469-18.863 18.539-32.109 18.539z"/> <g clip-path="url(#b)"> <path d="m338.77 534.74c-50.57 0-99.07-20.09-134.83-55.848-35.758-35.758-55.848-84.258-55.848-134.83 0-50.57 20.09-99.07 55.848-134.83 35.758-35.758 84.258-55.848 134.83-55.848 50.57 0 99.07 20.09 134.83 55.848 35.762 35.758 55.848 84.258 55.848 134.83 0 50.57-20.086 99.07-55.848 134.83-35.758 35.758-84.258 55.848-134.83 55.848zm0-360.16c-44.949 0-88.062 17.855-119.85 49.641s-49.641 74.895-49.641 119.85 17.855 88.062 49.641 119.85c31.785 31.785 74.898 49.645 119.85 49.645 44.953 0 88.062-17.859 119.85-49.645 31.785-31.785 49.645-74.895 49.645-119.85 0-29.75-7.832-58.98-22.707-84.746-14.879-25.766-36.273-47.16-62.039-62.035-25.766-14.879-54.992-22.707-84.746-22.707z"/> </g> <g clip-path="url(#a)"> <path d="m606.88 646.61-134.75-134.85 44.914-44.914 134.85 134.74zm-104.87-134.85 104.87 104.87 15.043-15.043-104.87-104.87z"/> </g> <path d="m463.72 473.39 14.98-14.98 26.516 26.516-14.98 14.98z"/> <path d="m220.97 344.07h-21.188 0.003906c0.054688-36.844 14.715-72.16 40.77-98.211 26.051-26.055 61.367-40.715 98.211-40.77v21.188-0.003907c-31.23 0.03125-61.176 12.449-83.262 34.535-22.086 22.082-34.504 52.031-34.535 83.262z"/> </g>
</svg>